<?xml version="1.0" encoding="utf-8"?>
<!-- Generator: Adobe Illustrator 20.1.0, SVG Export Plug-In . SVG Version: 6.00 Build 0)  -->
<svg version="1.1" id="Capa_1" xmlns="http://www.w3.org/2000/svg" xmlns:xlink="http://www.w3.org/1999/xlink" x="0px" y="0px"
	 viewBox="0 0 512 512" style="enable-background:new 0 0 512 512;" xml:space="preserve" width="20px" height="20px">
<style type="text/css">
	.st0{fill:#FFFFFF;}
</style>
<g>
	<path class="st0" d="M328.2,256l108.3-108.4c15.9-15.9,15.9-41.9,0-57.8l-14.4-14.4c-15.9-15.9-41.9-15.9-57.8,0L256,183.8
		L147.6,75.4c-15.9-15.9-41.9-15.9-57.8,0L75.4,89.9c-15.9,15.9-15.9,41.9,0,57.8L183.8,256L75.4,364.4c-15.9,15.9-15.9,41.9,0,57.8
		l14.5,14.4c15.9,15.9,41.9,15.9,57.8,0L256,328.2l108.3,108.3c15.9,15.9,41.9,15.9,57.8,0l14.4-14.4c15.9-15.9,15.9-41.9,0-57.8
		L328.2,256z"/>
</g>
</svg>
