<?xml version="1.0" encoding="utf-8"?>
<!-- Generator: Adobe Illustrator 20.1.0, SVG Export Plug-In . SVG Version: 6.00 Build 0)  -->
<svg version="1.1" id="Слой_1" xmlns="http://www.w3.org/2000/svg" xmlns:xlink="http://www.w3.org/1999/xlink" x="0px" y="0px"
	 viewBox="0 0 553 512" style="enable-background:new 0 0 553 512;" xml:space="preserve">
<style type="text/css">
	.st0{fill:#07B8B0;}
	.st1{fill:#FFFFFF;}
</style>
<g>
	<path class="st0" d="M198.2,462.9c-8.2,0-14.8-2.8-20.9-8.8l-0.1-0.1L23,287.8l-3.9-5.9c-4.9-5.4-8.1-13.1-8.1-20.1
		c0-7.3,3.5-15.5,8.8-20.9l27.6-27.6c5.7-5.7,13.1-8.8,20.9-8.8s15.2,3.1,20.9,8.8l2.1,2.1l108,115.9L465.7,55h2.5
		c5.1-3.8,11.2-5.9,17.5-5.9c7.8,0,15.2,3.1,20.9,8.8l27.6,27.6c11.7,11.7,11.7,29.9,0.1,41.6l-315.1,327
		C213.1,460.1,206.4,462.9,198.2,462.9z"/>
	<path class="st1" d="M485.7,59.1c4.9,0,9.8,2,13.8,5.9l27.6,27.6c7.9,7.9,7.9,19.7,0,27.6L212,447c-3.9,3.9-7.9,5.9-13.8,5.9
		c-5.9,0-9.8-2-13.8-5.9L30.8,281.6l-3.9-5.9h0c-3.9-3.9-5.9-9.8-5.9-13.8s2-9.8,5.9-13.8l27.6-27.6c3.9-3.9,8.9-5.9,13.8-5.9
		s9.8,2,13.8,5.9l2,2l108.3,116.2c2,2,4.4,3,6.9,3c2.5,0,4.9-1,6.9-3L470,65h2C475.9,61,480.8,59.1,485.7,59.1 M485.7,39.1
		c-7.3,0-14.4,2.1-20.6,5.9h-3.7l-5.9,6.1L199.3,316.9l-100.7-108l-0.2-0.3l-0.2-0.2l-2-2c-7.6-7.6-17.5-11.8-27.9-11.8
		c-10.4,0-20.3,4.2-27.9,11.8L12.8,234C5.5,241.2,1,251.9,1,261.9c0,9.2,3.8,19,10.1,26.2l3.1,4.6l0.9,1.3l1.1,1.2l153.6,165.4
		l0.3,0.3l0.3,0.3c7.9,7.9,17.1,11.8,27.9,11.8c10.9,0,20-3.8,27.9-11.8l0.1-0.1l0.1-0.1l315-326.8c15.5-15.7,15.5-40.1-0.2-55.7
		l-27.6-27.6C506.1,43.3,496.2,39.1,485.7,39.1L485.7,39.1z"/>
</g>
</svg>
