<?xml version="1.0" encoding="iso-8859-1"?>
<!-- Generator: Adobe Illustrator 18.1.1, SVG Export Plug-In . SVG Version: 6.00 Build 0)  -->
<svg xmlns="http://www.w3.org/2000/svg" xmlns:xlink="http://www.w3.org/1999/xlink" version="1.1" id="Capa_1" x="0px" y="0px" viewBox="0 0 591.6 591.6" style="enable-background:new 0 0 591.6 591.6;" xml:space="preserve" width="512px" height="512px">
<g>
	<g>
		<path d="M540.6,122.708H510v-30.6c0-15.912-7.548-32.028-19.584-42.024c-9.792-8.16-21.624-11.22-33.456-8.772L49.776,122.708    C22.236,123.32,0,145.964,0,173.708v326.4c0,28.152,22.848,51,51,51h489.6c28.152,0,51-22.848,51-51v-326.4    C591.6,145.556,568.752,122.708,540.6,122.708z M461.04,61.304c7.14-1.428,13.056,1.632,16.524,4.692    c7.344,6.12,12.036,16.32,12.036,26.112v30.6H154.02L461.04,61.304z M540.6,530.708H51c-16.932,0-30.6-13.668-30.6-30.6v-326.4    c0-16.932,13.668-30.6,30.6-30.6l0,0l0,0h489.6c16.932,0,30.6,13.668,30.6,30.6v51H336.6c-5.712,0-10.2,4.488-10.2,10.2v204    c0,5.712,4.488,10.2,10.2,10.2h234.6v51C571.2,517.04,557.532,530.708,540.6,530.708z M571.2,245.108v183.6H346.8v-183.6    L571.2,245.108L571.2,245.108z" fill="#8c8c8c"/>
		<path d="M193.8,168.608H51c-2.856,0-5.1,2.244-5.1,5.1v122.4c0,2.856,2.244,5.1,5.1,5.1s5.1-2.244,5.1-5.1v-117.3h137.7    c2.856,0,5.1-2.244,5.1-5.1S196.656,168.608,193.8,168.608z" fill="#8c8c8c"/>
		<path d="M453.9,387.908c28.152,0,51-22.848,51-51s-22.848-51-51-51s-51,22.848-51,51S425.748,387.908,453.9,387.908z     M453.9,306.308c16.932,0,30.6,13.668,30.6,30.6s-13.668,30.6-30.6,30.6s-30.6-13.668-30.6-30.6S436.968,306.308,453.9,306.308z" fill="#8c8c8c"/>
		<path d="M437.58,346.088c2.856,0,5.1-2.244,5.1-5.1c0-8.364,6.936-15.3,15.3-15.3c2.856,0,5.1-2.244,5.1-5.1s-2.244-5.1-5.1-5.1    c-14.076,0-25.5,11.424-25.5,25.5C432.48,343.844,434.724,346.088,437.58,346.088z" fill="#8c8c8c"/>
	</g>
</g>
<g>
</g>
<g>
</g>
<g>
</g>
<g>
</g>
<g>
</g>
<g>
</g>
<g>
</g>
<g>
</g>
<g>
</g>
<g>
</g>
<g>
</g>
<g>
</g>
<g>
</g>
<g>
</g>
<g>
</g>
</svg>
