<?xml version="1.0" encoding="utf-8"?>
<!-- Generator: Adobe Illustrator 20.1.0, SVG Export Plug-In . SVG Version: 6.00 Build 0)  -->
<svg version="1.1" id="Слой_1" xmlns="http://www.w3.org/2000/svg" xmlns:xlink="http://www.w3.org/1999/xlink" x="0px" y="0px"
	 viewBox="0 0 318 318" style="enable-background:new 0 0 318 318;" xml:space="preserve">
<style type="text/css">
	.st0{fill:#FFFFFF;}
	.st1{fill:#439DCD;}
</style>
<g>
	<path class="st0" d="M158.4,313.1c-26.9,0-53.5-7.1-76.9-20.7C8,250-17.3,155.6,25.1,82.1C52.6,34.5,103.7,5,158.6,5
		c26.9,0,53.5,7.1,76.9,20.7c35.6,20.6,61.1,53.8,71.8,93.5s5.2,81.2-15.4,116.9C264.4,283.6,213.3,313.1,158.4,313.1z"/>
	<path class="st0" d="M158.6,9c25.4,0,51.2,6.5,74.9,20.1c71.7,41.4,96.3,133.2,54.9,204.9c-27.8,48.1-78.2,75-130,75
		c-25.4,0-51.2-6.5-74.9-20.1C11.8,247.5-12.8,155.8,28.6,84.1C56.4,35.9,106.8,9,158.6,9 M158.7,1v8V1c-27.3,0-54.2,7.1-78,20.5
		c-24.5,13.8-44.9,34.1-59,58.5C0.6,116.6-5,159.2,5.9,199.9c10.9,40.8,37.1,74.8,73.6,95.9c24,13.9,51.3,21.2,78.9,21.2
		c27.3,0,54.2-7.1,78-20.5c24.5-13.8,44.9-34.1,59-58.5c21.1-36.5,26.7-79.1,15.8-119.9c-10.9-40.8-37.1-74.8-73.6-95.9
		C213.5,8.4,186.2,1,158.7,1L158.7,1z"/>
</g>
<path class="st1" d="M115.4,133.9C138.1,94.6,148.9,51.7,149,9.4C100.7,12.5,54.8,39,28.7,84.1c-26,45-26,97.9-4.7,141.3
	C60.8,204.2,92.7,173.3,115.4,133.9z"/>
<path class="st1" d="M33.9,242.5C46.2,261,62.9,277.1,83.5,289c68.8,39.7,156.1,18.7,199.6-46.4C203.2,196.5,108.5,199.7,33.9,242.5
	z"/>
<path class="st1" d="M168.5,9.4c0.2,86.1,45,169.7,124.8,215.9C328,155,302.6,68.9,233.7,29.2C213.1,17.2,190.8,10.8,168.5,9.4z"/>
</svg>
