<?xml version="1.0" encoding="utf-8"?>
<!-- Generator: Adobe Illustrator 20.1.0, SVG Export Plug-In . SVG Version: 6.00 Build 0)  -->
<svg version="1.1" id="Слой_1" xmlns="http://www.w3.org/2000/svg" xmlns:xlink="http://www.w3.org/1999/xlink" x="0px" y="0px"
	 viewBox="0 0 300.3 300.1" style="enable-background:new 0 0 300.3 300.1;" xml:space="preserve">
<style type="text/css">
	.st0{fill:#439DCD;}
	.st1{fill:none;}
</style>
<g>
	<path class="st0" d="M107,124.9c22.7-39.3,33.5-82.2,33.5-124.5C92.2,3.5,46.3,29.9,20.2,75c-26,45-26,97.9-4.7,141.3
		C52.3,195.1,84.2,164.3,107,124.9z"/>
	<path class="st0" d="M25.4,233.5C37.7,252,54.4,268,75,279.9c68.8,39.7,156.1,18.7,199.6-46.4C194.7,187.5,100,190.6,25.4,233.5z"
		/>
	<path class="st0" d="M160,0.3c0.2,86.1,45,169.7,124.8,215.9c34.7-70.3,9.3-156.4-59.6-196.1C204.6,8.2,182.3,1.8,160,0.3z"/>
	<ellipse transform="matrix(0.5 -0.866 0.866 0.5 -54.913 204.938)" class="st1" cx="150" cy="150" rx="150" ry="150"/>
</g>
</svg>
